{
    "asset" : {
        "generator" : "Khronos glTF Blender I/O v1.7.33",
        "version" : "2.0"
        
    },
    "scene" : 0,
    "scenes" : [
        {
            "name" : "Scene",
            "nodes" : [
                0
            ]
        }
    ],
    "nodes" : [
        {
            "mesh" : 0,
            "name" : "bishop.001",
            "rotation" : [
                0,
                1,
                0,
                -1.6292068494294654e-07
            ],
            "scale" : [
                0.5389795303344727,
                0.6000000238418579,
                0.5389795303344727
            ]
        }
    ],
    "materials" : [
        {
            "doubleSided" : true,
            "name" : "Material.012",
            "pbrMetallicRoughness" : {
                "baseColorFactor" : [
                    0.4564110040664673,
                    0.4564110040664673,
                    0.4564110040664673,
                    1
                ],
                "metallicFactor" : 0,
                "roughnessFactor" : 0.5
            }
        }
    ],
    "meshes" : [
        {
            "name" : "Circle.010",
            "primitives" : [
                {
                    "attributes" : {
                        "POSITION" : 0,
                        "NORMAL" : 1,
                        "TEXCOORD_0" : 2
                    },
                    "indices" : 3,
                    "material" : 0
                }
            ]
        }
    ],
    "accessors" : [
        {
            "bufferView" : 0,
            "componentType" : 5126,
            "count" : 2898,
            "max" : [
                1.076146125793457,
                6.087076663970947,
                1.09389328956604
            ],
            "min" : [
                -1.1116406917572021,
                0.092864990234375,
                -1.0938935279846191
            ],
            "type" : "VEC3"
        },
        {
            "bufferView" : 1,
            "componentType" : 5126,
            "count" : 2898,
            "type" : "VEC3"
        },
        {
            "bufferView" : 2,
            "componentType" : 5126,
            "count" : 2898,
            "type" : "VEC2"
        },
        {
            "bufferView" : 3,
            "componentType" : 5123,
            "count" : 4788,
            "type" : "SCALAR"
        }
    ],
    "bufferViews" : [
        {
            "buffer" : 0,
            "byteLength" : 34776,
            "byteOffset" : 0
        },
        {
            "buffer" : 0,
            "byteLength" : 34776,
            "byteOffset" : 34776
        },
        {
            "buffer" : 0,
            "byteLength" : 23184,
            "byteOffset" : 69552
        },
        {
            "buffer" : 0,
            "byteLength" : 9576,
            "byteOffset" : 92736
        }
    ],
    "buffers" : [
        {
            "byteLength" : 102312,
            "uri" : "data:application/octet-stream;base64,"
        }
    ]
}
