{
    "asset" : {
        "generator" : "Khronos glTF Blender I/O v1.7.33",
        "version" : "2.0"
    },
    "scene" : 0,
    "scenes" : [
        {
            "name" : "Scene",
            "nodes" : [
                0
            ]
        }
    ],
    "nodes" : [
        {
            "mesh" : 0,
            "name" : "Knight.001",
            "rotation" : [
                0,
                1,
                0,
                -1.6292068494294654e-07
            ],
            "scale" : [
                0.48783475160598755,
                0.48783475160598755,
                0.48783475160598755
            ]
        }
    ],
    "materials" : [
        {
            "doubleSided" : true,
            "name" : "Material.011",
            "pbrMetallicRoughness" : {
                "baseColorFactor" : [
                    0.4564110040664673,
                    0.4564110040664673,
                    0.4564110040664673,
                    1
                ],
                "metallicFactor" : 0,
                "roughnessFactor" : 0.5
            }
        }
    ],
    "meshes" : [
        {
            "name" : "Circle.012",
            "primitives" : [
                {
                    "attributes" : {
                        "POSITION" : 0,
                        "NORMAL" : 1,
                        "TEXCOORD_0" : 2
                    },
                    "indices" : 3,
                    "material" : 0
                }
            ]
        }
    ],
    "accessors" : [
        {
            "bufferView" : 0,
            "componentType" : 5126,
            "count" : 1548,
            "max" : [
                1.9520033597946167,
                6.115362167358398,
                1.093832015991211
            ],
            "min" : [
                -1.3683358430862427,
                0.11421728134155273,
                -1.093954086303711
            ],
            "type" : "VEC3"
        },
        {
            "bufferView" : 1,
            "componentType" : 5126,
            "count" : 1548,
            "type" : "VEC3"
        },
        {
            "bufferView" : 2,
            "componentType" : 5126,
            "count" : 1548,
            "type" : "VEC2"
        },
        {
            "bufferView" : 3,
            "componentType" : 5123,
            "count" : 2370,
            "type" : "SCALAR"
        }
    ],
    "bufferViews" : [
        {
            "buffer" : 0,
            "byteLength" : 18576,
            "byteOffset" : 0
        },
        {
            "buffer" : 0,
            "byteLength" : 18576,
            "byteOffset" : 18576
        },
        {
            "buffer" : 0,
            "byteLength" : 12384,
            "byteOffset" : 37152
        },
        {
            "buffer" : 0,
            "byteLength" : 4740,
            "byteOffset" : 49536
        }
    ],
    "buffers" : [
        {
            "byteLength" : 54276,
            "uri" : "data:application/octet-stream;base64,"
        }
    ]
}
