{
    "asset" : {
        "generator" : "Khronos glTF Blender I/O v1.7.33",
        "version" : "2.0"
        
    },
    "scene" : 0,
    "scenes" : [
        {
            "name" : "Scene",
            "nodes" : [
                0
            ]
        }
    ],
    "nodes" : [
        {
            "mesh" : 0,
            "name" : "Pawn.001",
            "rotation" : [
                0,
                1,
                0,
                -1.6292068494294654e-07
            ],
            "scale" : [
                0.3430083692073822,
                0.29986572265625,
                0.3430083692073822
            ]
        }
    ],
    "materials" : [
        {
            "doubleSided" : true,
            "name" : "Material.009",
            "pbrMetallicRoughness" : {
                "baseColorFactor" : [
                    0.4575313329696655,
                    0.4575313329696655,
                    0.4575313329696655,
                    1
                ],
                "metallicFactor" : 0,
                "roughnessFactor" : 0.5
            }
        }
    ],
    "meshes" : [
        {
            "name" : "Sphere.001",
            "primitives" : [
                {
                    "attributes" : {
                        "POSITION" : 0,
                        "NORMAL" : 1
                    },
                    "indices" : 2,
                    "material" : 0
                }
            ]
        }
    ],
    "accessors" : [
        {
            "bufferView" : 0,
            "componentType" : 5126,
            "count" : 1908,
            "max" : [
                1.4555437564849854,
                7.104560852050781,
                1.4555559158325195
            ],
            "min" : [
                -1.455543875694275,
                0.20258045196533203,
                -1.4555320739746094
            ],
            "type" : "VEC3"
        },
        {
            "bufferView" : 1,
            "componentType" : 5126,
            "count" : 1908,
            "type" : "VEC3"
        },
        {
            "bufferView" : 2,
            "componentType" : 5123,
            "count" : 2964,
            "type" : "SCALAR"
        }
    ],
    "bufferViews" : [
        {
            "buffer" : 0,
            "byteLength" : 22896,
            "byteOffset" : 0
        },
        {
            "buffer" : 0,
            "byteLength" : 22896,
            "byteOffset" : 22896
        },
        {
            "buffer" : 0,
            "byteLength" : 5928,
            "byteOffset" : 45792
        }
    ],
    "buffers" : [
        {
            "byteLength" : 51720,
            "uri" : "data:application/octet-stream;base64,"
        }
    ]
}
