{
    "asset" : {
        "generator" : "Khronos glTF Blender I/O v1.7.33",
        "version" : "2.0"
        
    },
    "scene" : 0,
    "scenes" : [
        {
            "name" : "Scene",
            "nodes" : [
                0
            ]
        }
    ],
    "nodes" : [
        {
            "mesh" : 0,
            "name" : "queeen.001",
            "rotation" : [
                0,
                1,
                0,
                -1.6292068494294654e-07
            ],
            "scale" : [
                0.5389795303344727,
                0.6000000238418579,
                0.5389795303344727
            ]
        }
    ],
    "materials" : [
        {
            "doubleSided" : true,
            "name" : "Material.013",
            "pbrMetallicRoughness" : {
                "baseColorFactor" : [
                    0.4564110040664673,
                    0.4564110040664673,
                    0.4564110040664673,
                    1
                ],
                "metallicFactor" : 0,
                "roughnessFactor" : 0.5
            }
        }
    ],
    "meshes" : [
        {
            "name" : "Circle.011",
            "primitives" : [
                {
                    "attributes" : {
                        "POSITION" : 0,
                        "NORMAL" : 1,
                        "TEXCOORD_0" : 2
                    },
                    "indices" : 3,
                    "material" : 0
                }
            ]
        }
    ],
    "accessors" : [
        {
            "bufferView" : 0,
            "componentType" : 5126,
            "count" : 3744,
            "max" : [
                1.5688438415527344,
                7.27277946472168,
                1.5688426494598389
            ],
            "min" : [
                -1.5688437223434448,
                0.092864990234375,
                -1.5688421726226807
            ],
            "type" : "VEC3"
        },
        {
            "bufferView" : 1,
            "componentType" : 5126,
            "count" : 3744,
            "type" : "VEC3"
        },
        {
            "bufferView" : 2,
            "componentType" : 5126,
            "count" : 3744,
            "type" : "VEC2"
        },
        {
            "bufferView" : 3,
            "componentType" : 5123,
            "count" : 5700,
            "type" : "SCALAR"
        }
    ],
    "bufferViews" : [
        {
            "buffer" : 0,
            "byteLength" : 44928,
            "byteOffset" : 0
        },
        {
            "buffer" : 0,
            "byteLength" : 44928,
            "byteOffset" : 44928
        },
        {
            "buffer" : 0,
            "byteLength" : 29952,
            "byteOffset" : 89856
        },
        {
            "buffer" : 0,
            "byteLength" : 11400,
            "byteOffset" : 119808
        }
    ],
    "buffers" : [
        {
            "byteLength" : 131208,
            "uri" : "data:application/octet-stream;base64,"
        }
    ]
}
