{
    "asset" : {
        "generator" : "Khronos glTF Blender I/O v1.7.33",
        "version" : "2.0"

    },
    "scene" : 0,
    "scenes" : [
        {
            "name" : "Scene",
            "nodes" : [
                0
            ]
        }
    ],
    "nodes" : [
        {
            "mesh" : 0,
            "name" : "Rook.003",
            "scale" : [
                0.6000000238418579,
                0.6000000238418579,
                0.6000000238418579
            ]
        }
    ],
    "materials" : [
        {
            "doubleSided" : true,
            "name" : "Material.015",
            "pbrMetallicRoughness" : {
                "baseColorFactor" : [
                    0.4564110040664673,
                    0.4564110040664673,
                    0.4564110040664673,
                    1
                ],
                "metallicFactor" : 0,
                "roughnessFactor" : 0.5
            }
        }
    ],
    "meshes" : [
        {
            "name" : "Circle.016",
            "primitives" : [
                {
                    "attributes" : {
                        "POSITION" : 0,
                        "NORMAL" : 1,
                        "TEXCOORD_0" : 2
                    },
                    "indices" : 3,
                    "material" : 0
                }
            ]
        }
    ],
    "accessors" : [
        {
            "bufferView" : 0,
            "componentType" : 5126,
            "count" : 2032,
            "max" : [
                1.0940669775009155,
                4.058528900146484,
                1.0938053131103516
            ],
            "min" : [
                -1.0937196016311646,
                0.09286534786224365,
                -1.0939807891845703
            ],
            "type" : "VEC3"
        },
        {
            "bufferView" : 1,
            "componentType" : 5126,
            "count" : 2032,
            "type" : "VEC3"
        },
        {
            "bufferView" : 2,
            "componentType" : 5126,
            "count" : 2032,
            "type" : "VEC2"
        },
        {
            "bufferView" : 3,
            "componentType" : 5123,
            "count" : 3360,
            "type" : "SCALAR"
        }
    ],
    "bufferViews" : [
        {
            "buffer" : 0,
            "byteLength" : 24384,
            "byteOffset" : 0
        },
        {
            "buffer" : 0,
            "byteLength" : 24384,
            "byteOffset" : 24384
        },
        {
            "buffer" : 0,
            "byteLength" : 16256,
            "byteOffset" : 48768
        },
        {
            "buffer" : 0,
            "byteLength" : 6720,
            "byteOffset" : 65024
        }
    ],
    "buffers" : [
        {
            "byteLength" : 71744,
            "uri" : "data:application/octet-stream;base64,"
        }
    ]
}
